<?xml version="1.0" encoding="iso-8859-1"?>
<!-- Generator: Adobe Illustrator 19.0.0, SVG Export Plug-In . SVG Version: 6.00 Build 0)  -->
<svg version="1.1" id="Capa_1" xmlns="http://www.w3.org/2000/svg" xmlns:xlink="http://www.w3.org/1999/xlink" x="0px" y="0px"
	 viewBox="0 0 309.6 309.6" style="enable-background:new 0 0 309.6 309.6;" xml:space="preserve">
<g>
	<g>
		<g>
			<path d="M96.8,93.6c-3.2,0-6,1.2-8.4,3.6c-2,2-3.2,5.2-3.2,8.4s1.2,5.6,3.2,8l0.4,0.4c2,2,5.2,3.6,8.4,3.6c3.2,0,6-1.2,8.4-3.2
				c2-2,3.2-5.2,3.2-8.4s-1.2-6-3.2-8.4C102.8,95.2,100,93.6,96.8,93.6z"/>
			<path d="M264.4,45.2C236.4,17.2,197.6,0,154.8,0S73.2,17.2,45.2,45.2S0,112,0,154.8s17.2,81.6,45.2,109.6s66.8,45.2,109.6,45.2
				s81.6-17.2,109.6-45.2s45.2-66.8,45.2-109.6S292.4,73.2,264.4,45.2z M96.8,138.4c-9.2,0-17.2-3.6-23.2-9.6
				c-0.4-0.4-0.4-0.4-0.8-0.8c-5.6-6-9.2-14-9.2-22.8c0-9.2,3.6-17.2,9.6-23.2s14.4-9.6,23.2-9.6c9.2,0,17.2,3.6,23.2,9.6
				s9.6,14.4,9.6,23.2c0.8,9.2-3.2,17.6-9.2,23.6S105.6,138.4,96.8,138.4z M170,196c7.2,7.2,17.2,11.6,28,11.6c4,0,7.6-0.4,11.6-1.6
				c3.6-1.2,7.2-2.8,10.4-4.8c6.8-4.4,16-2.8,20.8,4c4.4,6.8,2.8,16-4,20.8c-5.6,3.6-12,6.8-18.4,8.8c-6.4,2-13.2,2.8-20,2.8
				c-19.2,0-36.4-7.6-49.2-20.4c-12.4-12.4-20.4-30-20.4-49.2c0-19.2,7.6-36.4,20.4-49.2c12.4-12.4,30-20.4,49.2-20.4
				c7.6,0,14.8,1.2,22,3.6c7.2,2.4,14,6,20,10.4c6,5.6,7.2,14.8,2.4,21.2s-14.4,7.6-20.8,2.8c-3.6-2.8-7.2-4.8-11.2-6
				c-4-1.2-8.4-2-12.8-2c-10.8,0-20.8,4.4-28,11.6s-11.6,17.2-11.6,28S162.8,188.8,170,196z"/>
		</g>
	</g>
</g>
<g>
</g>
<g>
</g>
<g>
</g>
<g>
</g>
<g>
</g>
<g>
</g>
<g>
</g>
<g>
</g>
<g>
</g>
<g>
</g>
<g>
</g>
<g>
</g>
<g>
</g>
<g>
</g>
<g>
</g>
</svg>
