<?xml version="1.0" encoding="iso-8859-1"?>
<!-- Generator: Adobe Illustrator 19.0.0, SVG Export Plug-In . SVG Version: 6.00 Build 0)  -->
<svg version="1.1" id="Capa_1" xmlns="http://www.w3.org/2000/svg" xmlns:xlink="http://www.w3.org/1999/xlink" x="0px" y="0px"
	 viewBox="0 0 386.4 386.4" style="enable-background:new 0 0 386.4 386.4;" xml:space="preserve">
<g>
	<g>
		<g>
			<path d="M241.6,292.4c-5.6-2.4-11.6-3.6-18-3.6c-0.4,0-0.8,0-1.2,0h-112c-4,0-7.6,1.6-10,4.4c-2.8,2.8-4.4,6-4.4,10
				s1.6,7.6,4.4,10c2.8,2.8,6.4,4.4,10,4.4h112c0.4,0,0.8,0,1.2,0c5.2,0,10,2,13.2,5.6c1.6,1.6,3.2,3.6,4,6c0.8,2,1.6,4.4,1.6,7.2
				c0,2.4-0.4,4.8-1.6,7.2c-0.8,2.4-2.4,4.4-4,6c-1.6,1.6-3.6,3.2-6,4c-2,0.8-4.8,1.6-7.2,1.6s-4.8-0.4-7.2-1.6
				c-2.4-0.8-4.4-2.4-6-4c-1.6-1.6-3.2-3.6-4-6c-0.8-2-1.6-4.8-1.6-7.2c0-4-1.6-7.6-4.4-10c-2.8-2.8-6.4-4.4-10-4.4
				c-4,0-7.6,1.6-10,4.4c-2.8,2.8-4.4,6.4-4.4,10c0,6.4,1.2,12.4,3.6,18c2.4,6,6,11.2,10.4,15.6c4.4,4.4,9.6,8,15.6,10.4
				c5.6,2.4,11.6,3.6,18,3.6c13.2,0,25.2-5.2,33.6-14c4.4-4.4,8-9.6,10.4-15.6c2.4-5.6,3.6-11.6,3.6-18c0-13.2-5.2-25.2-14-33.6
				C252.8,298.4,247.6,294.8,241.6,292.4z"/>
			<path d="M316.8,141.6c0-19.6-8-37.2-20.8-49.6c-12.8-12.8-30.4-20.8-49.6-20.8c-13.2,0-25.6,3.6-36.4,10
				c-7.6,4.8-14.4,10.8-20,18l0.4,0.4c6,4.4,11.2,8.8,15.6,13.6c7.2,7.6,13.2,16,17.6,25.6c2,0,4.4-0.4,6.4-0.4
				c21.6,0,40.8,8.8,55.2,22.8c1.6,1.6,3.2,3.6,4.8,5.2c4.8,5.6,8.8,12.4,11.6,19.2c4-5.2,7.6-11.2,10-17.2
				C315.2,160,316.8,150.8,316.8,141.6z"/>
			<path d="M246.8,51.6c5.6,0,10.4-4.8,10.4-10.4V12.8c0-5.6-4.8-10.4-10.4-10.4c-5.6,0-10.4,4.8-10.4,10.4v28.4
				C236.4,46.8,241.2,51.6,246.8,51.6z"/>
			<path d="M325.2,78l20-20c4-4,4-10.4,0-14.4s-10.4-4-14.4,0l-20,20c-4,4-4,10.4,0,14.4S321.2,82,325.2,78z"/>
			<path d="M376,131.6h-28.4c-5.6,0-10.4,4.8-10.4,10.4s4.8,10.4,10.4,10.4H376c5.6,0,10.4-4.8,10.4-10.4
				C386,136.4,381.6,131.6,376,131.6z"/>
			<path d="M325.2,206c-4-4-10.4-4-14.4,0s-4,10.4,0,14.4l20,20c4,4,10.4,4,14.4,0s4-10.4,0-14.4L325.2,206z"/>
			<path d="M168,78c4,4,10.4,4,14.4,0s4-10.4,0-14.4l-20-20c-3.6-4.4-10.4-4.4-14.4,0c-4,4-4,10.4,0,14.4L168,78z"/>
			<path d="M230.4,159.2c-8.4,0-16.4,1.6-23.6,5.2c-7.2,3.2-14,8-19.2,14.4c-3.6,4.4-10.4,4.8-14.4,0.8c-4.4-3.6-4.8-10.4-0.8-14.4
				c7.6-8.4,16.4-14.8,26.4-19.2c1.6-0.8,3.2-1.6,4.8-2c-6.4-11.2-14.4-20.4-24.4-26.8c-12.8-8.8-28-14-44.4-14
				c-19.2,0-36.8,7.2-50.8,18.8c-13.6,11.6-23.2,28.4-26,47.2c-0.4,3.2-2,5.6-4.4,7.2C52,177.6,50,178,48,178
				c-13.2,0-25.2,5.2-34,14c-8.8,8.8-14,20.8-14,34s5.2,25.2,14,34c8.8,8.8,20.8,14,34,14h182c16-0.4,30.4-6.8,40.8-17.2
				c10.4-10.4,16.8-24.8,16.8-40.4c0-16-6.4-30-16.8-40.4C260.4,165.6,246,159.2,230.4,159.2z"/>
		</g>
	</g>
</g>
<g>
</g>
<g>
</g>
<g>
</g>
<g>
</g>
<g>
</g>
<g>
</g>
<g>
</g>
<g>
</g>
<g>
</g>
<g>
</g>
<g>
</g>
<g>
</g>
<g>
</g>
<g>
</g>
<g>
</g>
</svg>
