<?xml version="1.0" encoding="iso-8859-1"?>
<!-- Generator: Adobe Illustrator 19.0.0, SVG Export Plug-In . SVG Version: 6.00 Build 0)  -->
<svg version="1.1" id="Capa_1" xmlns="http://www.w3.org/2000/svg" xmlns:xlink="http://www.w3.org/1999/xlink" x="0px" y="0px"
	 viewBox="0 0 330.8 330.8" style="enable-background:new 0 0 330.8 330.8;" xml:space="preserve">
<g>
	<g>
		<g>
			<path d="M278.8,223.2c-6.4-2.8-13.6-4-20.8-4c-0.4,0-0.8,0-1.6,0H127.6c-4.4,0-8.8,2-11.6,4.8c-2.8,2.8-4.8,7.2-4.8,11.6
				c0,4.4,2,8.8,4.8,11.6c2.8,2.8,7.2,4.8,11.6,4.8h128.8c0.4,0,0.8,0,1.6,0c6,0,11.2,2.4,15.2,6.4c2,2,3.6,4.4,4.8,6.8
				c1.2,2.4,1.6,5.2,1.6,8.4c0,2.8-0.4,5.6-1.6,8.4s-2.8,4.8-4.8,6.8s-4.4,3.6-6.8,4.8c-2.4,1.2-5.2,1.6-8.4,1.6
				c-2.8,0-5.6-0.4-8.4-1.6c-2.8-0.8-5.2-2.4-7.2-4.4s-3.6-4.4-4.8-6.8c-1.2-2.4-1.6-5.2-1.6-8.4c0-4.4-2-8.8-4.8-11.6
				c-3.2-3.2-7.2-4.8-11.6-4.8c-4.4,0-8.8,2-11.6,4.8c-3.2,3.2-4.8,7.2-4.8,11.6c0,7.2,1.6,14.4,4,20.8c2.8,6.8,6.8,12.8,12,17.6
				c5.2,5.2,11.2,9.2,17.6,12c6.4,2.8,13.6,4,20.8,4c15.2,0,28.8-6,38.8-16c5.2-5.2,9.2-11.2,12-17.6c2.8-6.4,4-13.6,4-20.8
				c0-15.2-6-28.8-16-38.8C291.2,230,285.2,226,278.8,223.2z"/>
			<path d="M311.6,179.2c12-12,19.2-28.4,19.2-46.4s-7.2-34.8-19.2-46.4c-12-12-28.4-19.2-46.4-19.2c-9.6,0-18.8,2-27.2,5.6
				c-8.4,4-16,9.2-22.4,16.4c-4.4,4.8-11.6,5.2-16.8,1.2c-4.8-4.4-5.2-11.6-1.2-16.8C206,64,216.4,56.4,228,51.2
				c2-0.8,3.6-1.6,5.6-2.4c-6.8-12.4-16-22.4-27.2-30.4c-14.8-10-32.4-16-50.8-16c-22,0-42.4,8-58.4,21.6
				c-15.6,13.6-26.8,32.4-30,54.4c-0.4,3.2-2.4,6.4-5.2,8h-0.4h-0.4h-0.4h-0.4c-1.6,0.8-3.6,1.6-5.6,1.6c-15.2,0-29.2,6-38.8,16
				C6,114,0,127.6,0,142.8c0,15.2,6,28.8,16,38.8c10.4,10.8,24.4,16.8,39.6,16.8h209.6C283.2,198.4,300,191.2,311.6,179.2z"/>
		</g>
	</g>
</g>
<g>
</g>
<g>
</g>
<g>
</g>
<g>
</g>
<g>
</g>
<g>
</g>
<g>
</g>
<g>
</g>
<g>
</g>
<g>
</g>
<g>
</g>
<g>
</g>
<g>
</g>
<g>
</g>
<g>
</g>
</svg>
